<?xml version="1.0" standalone="no"?>
<!DOCTYPE svg PUBLIC "-//W3C//DTD SVG 20010904//EN"
 "http://www.w3.org/TR/2001/REC-SVG-20010904/DTD/svg10.dtd">
<svg version="1.0" xmlns="http://www.w3.org/2000/svg"
 width="500.000000pt" height="500.000000pt" viewBox="0 0 500.000000 500.000000"
 preserveAspectRatio="xMidYMid meet">
<metadata>
Created by potrace 1.11, written by Peter Selinger 2001-2013
</metadata>
<g transform="translate(0.000000,500.000000) scale(0.100000,-0.100000)"
fill="#000000" stroke="none">
<path d="M0 2500 l0 -2500 648 0 649 0 13 25 c15 28 46 33 76 10 10 -8 27 -15
36 -15 9 0 18 -5 20 -11 2 -6 21 -9 43 -7 l40 3 -40 19 c-22 11 -42 20 -45 21
-3 0 -25 11 -50 22 -35 17 -41 23 -27 28 9 4 17 14 17 21 0 8 7 17 15 20 8 4
15 11 15 16 0 11 60 103 87 133 25 29 58 76 72 105 15 31 -82 -71 -123 -128
-15 -22 -53 -64 -83 -93 -48 -48 -55 -52 -64 -36 -6 9 -14 15 -19 12 -5 -3
-39 15 -75 40 -37 25 -70 45 -76 45 -5 0 -9 4 -9 9 0 5 -8 12 -17 15 -10 4
-29 15 -42 25 l-24 19 29 32 c63 69 186 187 303 290 53 46 26 36 -33 -12 -28
-24 -53 -45 -56 -48 -5 -7 -153 -122 -198 -155 -15 -11 -41 -33 -57 -48 -32
-29 -72 -30 -88 -1 -4 8 -13 14 -20 14 -7 0 1 -12 17 -26 l28 -25 -23 -25
c-38 -40 -63 -32 -148 50 -42 40 -92 88 -111 105 -38 34 -36 55 9 77 12 6 32
20 44 32 12 11 36 28 52 39 17 10 45 27 63 38 18 11 61 41 95 66 34 25 90 62
125 83 34 21 62 40 62 43 0 3 -19 -7 -43 -21 -23 -15 -82 -47 -132 -72 -102
-52 -158 -82 -210 -113 -20 -11 -40 -21 -45 -21 -6 0 -30 21 -55 47 -25 25
-47 44 -50 41 -7 -7 53 -88 66 -88 17 0 2 -17 -36 -39 l-35 -20 -22 22 c-13
12 -34 38 -48 57 -33 48 -42 58 -67 85 -13 12 -23 32 -23 44 0 12 -6 21 -14
21 -8 0 -18 4 -21 10 -8 13 26 59 43 60 14 0 70 -57 105 -107 23 -34 37 -42
37 -20 0 12 -31 53 -78 105 -12 14 -22 28 -22 32 0 8 162 90 177 90 6 0 23 6
39 14 16 8 46 22 66 31 21 10 38 21 38 25 0 9 -133 -24 -160 -39 -31 -17 -191
-62 -200 -56 -5 3 -17 23 -26 43 -10 20 -24 45 -32 55 -38 44 -93 162 -86 181
4 11 19 16 43 16 20 0 46 6 57 14 11 8 42 19 70 25 67 13 114 27 144 40 21 10
16 11 -30 6 -30 -3 -93 -8 -140 -12 -47 -3 -89 -9 -95 -13 -5 -5 -34 -13 -64
-18 l-53 -10 -16 37 c-9 20 -16 38 -17 41 -3 15 -20 60 -35 95 -63 145 -63
149 0 160 35 6 45 3 67 -16 15 -13 23 -19 20 -13 -3 6 4 16 16 21 30 14 112
33 142 33 13 0 27 5 30 10 4 6 -33 11 -102 12 -59 1 -134 3 -166 3 -74 2 -86
14 -91 95 -4 66 -6 72 -23 126 -18 55 38 100 58 46 13 -35 42 -93 50 -98 4 -2
3 13 -2 34 -18 70 -35 227 -29 257 3 16 3 50 0 75 -7 58 -3 80 16 73 10 -4 14
2 14 20 0 16 7 27 18 30 16 4 16 5 0 6 -14 1 -18 10 -18 36 0 19 4 35 9 35 4
0 11 39 14 87 9 112 18 144 44 154 23 9 31 -9 38 -86 3 -22 9 -70 14 -107 5
-37 7 -77 4 -88 -5 -20 -2 -21 43 -18 l49 3 9 150 c5 100 5 154 -2 166 -8 12
-6 20 6 32 11 12 15 32 13 76 -1 34 2 62 8 66 6 3 11 15 11 26 0 11 13 34 30
51 16 16 30 39 30 50 0 11 11 29 25 40 14 11 25 26 25 34 0 8 7 17 15 20 8 4
15 12 15 20 0 8 6 14 14 14 8 0 21 6 28 14 17 16 128 24 175 12 24 -6 35 -16
45 -42 6 -19 16 -34 20 -34 4 0 8 36 8 80 0 64 3 80 15 80 11 0 15 12 15 51 0
43 4 54 25 71 21 16 25 28 25 69 0 37 4 49 15 49 8 0 15 -8 15 -17 0 -14 2
-15 13 -4 10 11 10 14 0 18 -20 7 -15 23 12 45 14 11 25 24 25 29 0 6 12 27
27 46 19 25 24 38 15 41 -19 6 -14 22 12 43 14 11 28 28 31 39 6 18 16 20 95
20 62 0 90 -4 93 -12 7 -22 14 -5 20 49 4 39 2 56 -8 67 -8 8 -15 24 -15 35 0
25 56 81 82 81 11 0 28 11 39 24 16 20 24 23 69 18 33 -3 50 -1 50 7 0 6 -17
11 -40 11 -22 0 -40 5 -40 10 0 6 28 10 63 10 62 1 81 9 105 45 20 33 52 106
52 121 0 8 5 14 10 14 6 0 10 -4 10 -10 0 -5 7 -10 15 -10 9 0 18 13 22 31 3
19 14 34 25 36 10 3 18 10 18 15 0 6 29 7 80 3 70 -6 80 -5 80 9 0 12 10 16
40 16 22 0 40 5 40 10 0 6 20 10 44 10 26 0 48 6 56 15 10 12 36 15 116 15 86
0 104 -3 104 -15 0 -12 16 -15 80 -15 47 0 80 -4 80 -10 0 -5 22 -10 49 -10
41 0 53 4 69 25 11 14 25 25 31 25 6 0 11 11 11 25 0 14 4 25 9 25 5 0 18 -11
29 -25 11 -14 29 -25 39 -25 14 0 26 -15 42 -51 14 -31 32 -54 47 -59 13 -5
29 -18 36 -30 10 -16 23 -20 65 -20 42 0 53 -3 53 -16 0 -23 24 -11 28 14 2
13 13 24 28 28 13 3 24 10 24 14 0 4 11 11 25 14 14 4 25 11 25 16 0 15 127
13 133 -2 4 -10 6 -10 6 0 1 18 41 15 41 -4 0 -8 4 -13 9 -10 15 9 101 -32
108 -51 8 -23 23 -33 50 -33 12 0 30 -11 41 -25 23 -28 42 -33 42 -9 0 12 10
8 39 -15 21 -17 43 -31 48 -31 6 0 17 -8 26 -18 13 -14 17 -39 17 -104 0 -48
-4 -88 -10 -90 -6 -2 -6 -9 0 -18 8 -13 11 -12 24 5 9 11 16 15 16 8 0 -14 58
-73 71 -73 5 0 9 7 9 15 0 19 24 19 44 0 20 -21 116 -21 116 0 0 12 16 15 80
15 64 0 80 -3 80 -15 0 -8 5 -15 10 -15 6 0 10 -18 10 -40 0 -22 -4 -40 -10
-40 -5 0 -10 -11 -10 -24 0 -16 13 -35 40 -56 27 -21 40 -40 40 -56 0 -13 5
-24 10 -24 6 0 5 -8 -2 -20 -7 -10 -8 -23 -4 -27 5 -4 11 -2 13 5 3 6 11 12
19 12 17 0 19 -27 1 -33 -6 -2 -8 -8 -4 -13 4 -4 17 -3 27 4 12 7 20 8 20 2 0
-5 5 -10 11 -10 6 0 17 -7 25 -15 9 -8 26 -15 38 -15 22 0 56 -27 56 -44 0 -5
14 -26 31 -47 23 -29 27 -39 15 -39 -24 0 -19 -18 12 -45 19 -18 24 -27 15
-33 -8 -5 -9 -13 -3 -22 8 -13 12 -12 24 5 15 20 15 20 16 -4 0 -14 7 -33 17
-43 15 -17 15 -18 0 -18 -25 0 -21 -19 8 -42 14 -11 25 -25 25 -33 0 -7 7 -18
15 -25 11 -9 15 -34 15 -100 0 -85 -1 -90 -27 -110 l-28 -22 28 -23 c24 -21
27 -31 27 -84 0 -53 3 -63 31 -90 17 -18 41 -31 55 -31 23 0 24 -2 24 -80 l0
-80 -39 0 c-34 0 -44 -6 -70 -39 -29 -36 -31 -45 -31 -119 0 -44 -4 -82 -9
-84 -13 -5 19 -78 34 -78 8 0 31 -18 53 -40 21 -22 47 -40 58 -41 14 0 12 -4
-10 -13 l-29 -13 39 -8 c21 -5 46 -10 54 -11 8 -1 56 -13 105 -26 79 -20 90
-26 93 -47 2 -13 -1 -28 -7 -34 -6 -6 -11 -25 -11 -41 0 -17 -8 -62 -18 -101
-20 -80 -19 -105 8 -105 10 0 22 -5 25 -10 3 -6 15 -10 26 -10 10 0 19 -4 19
-10 0 -5 9 -10 20 -10 20 0 20 7 20 375 l0 375 -62 0 c-35 0 -90 -5 -123 -10
-86 -14 -89 -10 -81 163 3 76 9 143 12 149 4 6 9 86 11 177 2 101 8 170 15
179 6 7 25 12 42 10 24 -2 31 -9 38 -35 9 -34 22 -43 31 -20 8 19 28 -14 23
-37 -3 -11 0 -28 6 -40 17 -32 11 -119 -9 -130 -10 -5 -28 -20 -41 -33 -24
-25 -24 -25 -1 -151 9 -47 13 -52 31 -46 14 4 18 2 14 -5 -4 -7 -1 -9 8 -5 17
7 34 55 43 127 3 26 10 50 15 53 5 3 4 11 -2 19 -8 10 -6 15 9 20 l21 6 0
1170 0 1169 -2500 0 -2500 0 0 -2500z m90 -424 c27 -34 -4 -78 -45 -63 -11 5
-10 12 3 41 18 40 24 43 42 22z m137 -912 c-3 -3 -12 -4 -19 -1 -8 3 -5 6 6 6
11 1 17 -2 13 -5z m57 -86 c-3 -4 6 -14 19 -23 13 -8 37 -41 53 -73 16 -31 33
-60 38 -63 5 -4 -1 -12 -13 -18 -22 -12 -25 -9 -22 22 1 9 -4 17 -13 17 -9 0
-16 -6 -17 -12 0 -8 -3 -8 -6 2 -4 8 -16 23 -27 33 l-21 19 23 -5 c17 -4 22
-1 22 14 0 12 -5 16 -14 13 -17 -7 -76 34 -76 53 0 7 4 13 9 13 5 0 6 21 4 48
l-5 47 25 -40 c14 -22 23 -43 21 -47z m-54 10 c0 -5 -7 -8 -15 -8 -15 0 -20
21 -8 33 7 7 23 -11 23 -25z m814 -840 c30 -24 65 -55 58 -51 -3 1 -13 -2 -23
-7 -9 -6 -19 -7 -22 -2 -2 4 -2 1 0 -7 2 -8 -2 -11 -10 -8 -8 3 -20 1 -28 -5
-11 -8 -11 -9 3 -4 10 3 20 1 22 -3 10 -16 -31 -6 -49 13 -19 18 -19 18 2 12
13 -4 24 -2 29 5 4 7 3 10 -2 6 -5 -3 -25 2 -44 10 -32 14 -33 16 -14 23 12 5
24 15 27 24 8 21 17 20 51 -6z m-429 2 c3 -5 -1 -10 -9 -10 -9 0 -16 5 -16 10
0 6 4 10 9 10 6 0 13 -4 16 -10z m19 -62 c-3 -4 4 -8 15 -8 12 0 21 5 21 11 0
6 13 0 28 -13 16 -13 25 -25 21 -28 -4 -3 -4 -12 1 -20 8 -12 10 -12 10 -1 0
10 8 12 31 7 25 -5 30 -3 25 9 -3 8 -1 15 4 15 15 0 12 -78 -4 -87 -7 -4 -16
-15 -20 -23 -3 -8 -4 -4 -2 10 2 14 0 34 -4 45 -6 15 -9 16 -9 4 -1 -12 -13
-16 -53 -16 -29 -1 -58 3 -65 9 -8 6 -10 3 -6 -11 3 -12 1 -21 -6 -21 -6 0
-11 5 -11 10 0 6 -7 10 -16 10 -12 0 -15 7 -12 30 3 17 1 30 -4 30 -5 0 -6 5
-3 11 5 7 11 5 18 -5 7 -8 21 -16 32 -18 11 -2 23 -12 27 -23 6 -19 6 -18 7 3
1 24 21 31 21 7 0 -9 6 -12 17 -8 11 4 13 8 5 11 -10 3 -10 7 0 19 11 14 10
15 -12 9 -18 -5 -21 -5 -10 3 8 5 11 13 7 17 -3 4 -13 2 -20 -5 -11 -9 -20 -7
-37 7 -18 14 -19 19 -7 19 9 0 14 -4 11 -9z m302 -13 c-5 -14 11 -21 37 -16 5
1 6 -2 3 -7 -6 -10 -36 -9 -54 2 -9 5 -9 10 1 21 16 19 20 19 13 0z m256 -32
c37 -24 70 -48 73 -53 7 -11 -15 -60 -28 -60 -16 0 -87 61 -87 76 0 20 -30 17
-31 -3 0 -15 -2 -15 -9 2 -7 17 -9 17 -9 3 -1 -23 -18 -23 -24 0 -4 14 -5 13
-6 -4 0 -11 4 -25 11 -32 6 -6 9 -15 5 -18 -3 -4 -11 5 -18 18 -10 23 -16 25
-56 22 -38 -2 -46 1 -50 17 -3 10 -10 16 -17 12 -6 -3 -8 -2 -3 2 11 12 47 17
47 6 0 -5 -6 -12 -12 -14 -8 -4 -7 -6 3 -6 9 -1 19 5 22 13 5 12 42 18 112 17
15 0 16 2 6 8 -8 5 -25 7 -38 5 -27 -5 -29 -1 -9 19 23 23 47 17 118 -30z
m-572 16 c0 -6 -4 -7 -10 -4 -5 3 -10 11 -10 16 0 6 5 7 10 4 6 -3 10 -11 10
-16z m-320 -40 c0 -27 -4 -39 -14 -39 -8 0 -18 5 -21 10 -5 8 -11 7 -21 -1
-11 -9 -14 -7 -14 10 0 11 -5 21 -11 21 -6 0 -8 -8 -5 -17 5 -16 -3 -18 -69
-21 l-75 -2 3 31 c3 43 29 59 53 34 17 -17 19 -17 22 -2 3 12 14 17 38 17 19
0 33 -4 29 -9 -3 -5 -1 -12 5 -16 5 -3 10 1 10 9 0 14 44 27 63 18 4 -2 7 -21
7 -43z m517 -11 c-2 -13 -4 -5 -4 17 -1 22 1 32 4 23 2 -10 2 -28 0 -40z
m-434 29 c4 3 7 0 7 -8 0 -11 2 -11 10 1 8 12 10 9 10 -12 0 -16 -4 -28 -10
-28 -5 0 -10 6 -10 13 0 8 -4 7 -10 -3 -9 -13 -11 -13 -20 0 -5 8 -10 23 -10
34 0 14 3 16 13 7 8 -6 17 -8 20 -4z m79 -11 c5 -8 8 -7 8 2 0 6 7 12 15 12 8
0 15 -6 15 -12 0 -9 4 -8 11 2 9 12 12 13 16 1 5 -11 7 -11 15 0 6 10 8 7 6
-11 -4 -33 -48 -38 -56 -7 -5 20 -6 20 -12 2 -12 -34 -59 -25 -60 11 0 14 33
14 42 0z m408 -3 c1 -17 1 -17 11 0 5 9 19 17 30 17 17 0 20 -6 17 -32 -2 -24
-9 -34 -23 -36 -17 -3 -17 -1 -5 7 15 11 12 12 -22 15 -7 1 -16 10 -20 21 -6
19 -6 18 -7 -2 -1 -31 -21 -29 -21 2 0 18 5 25 20 25 12 0 20 -7 20 -17z m133
-58 c-7 -21 -13 -19 -13 6 0 11 4 18 10 14 5 -3 7 -12 3 -20z m51 -15 c-6 -6
-10 -3 -10 10 0 13 4 16 10 10 7 -7 7 -13 0 -20z m-244 16 c0 -2 -8 -10 -17
-17 -16 -13 -17 -12 -4 4 13 16 21 21 21 13z m43 -17 c-6 -6 -19 -9 -29 -6
-16 4 -15 5 4 6 12 0 22 6 22 13 0 6 3 8 7 5 4 -4 2 -12 -4 -18z"/>
<path d="M130 110 c0 -5 5 -10 10 -10 6 0 10 5 10 10 0 6 -4 10 -10 10 -5 0
-10 -4 -10 -10z"/>
<path d="M4050 3716 c0 -2 7 -9 15 -16 12 -10 15 -10 15 4 0 9 -7 16 -15 16
-8 0 -15 -2 -15 -4z"/>
<path d="M2485 3631 c-16 -7 -11 -10 26 -16 53 -8 79 -5 82 10 2 13 -81 17
-108 6z"/>
<path d="M4047 3594 c-14 -15 -6 -34 14 -34 14 0 19 5 17 17 -3 18 -20 27 -31
17z"/>
<path d="M2612 3503 c3 -14 14 -18 58 -21 30 -1 70 -5 88 -8 26 -5 31 -3 26 9
-3 10 -25 17 -62 21 -31 4 -70 9 -85 12 -24 5 -28 3 -25 -13z"/>
<path d="M3071 3512 c-14 -2 -46 -18 -72 -36 -36 -24 -45 -35 -39 -46 6 -9 10
-10 10 -4 0 16 96 77 112 71 7 -2 -11 -19 -40 -37 -29 -18 -49 -35 -45 -39 4
-3 10 -9 14 -14 7 -9 75 51 72 64 -8 27 135 45 212 26 43 -11 120 -60 121 -77
1 -20 -15 -50 -25 -50 -5 0 -11 8 -13 18 -4 13 -28 21 -105 36 -107 20 -186
17 -212 -8 -12 -13 -9 -13 25 -1 52 19 112 18 165 -1 24 -9 51 -16 61 -16 30
1 27 -35 -6 -65 -88 -81 -86 -79 -92 -57 -4 16 -36 39 -85 61 -3 1 -6 -4 -6
-12 0 -7 11 -19 24 -26 13 -7 32 -27 43 -44 20 -33 70 -82 111 -108 25 -16 26
-16 99 58 70 71 73 75 62 101 -10 20 -10 30 -1 40 19 23 25 17 53 -45 36 -81
44 -135 34 -222 -7 -58 -14 -79 -35 -101 -23 -24 -24 -28 -11 -47 14 -19 16
-16 39 52 18 55 24 93 24 162 -1 82 -4 96 -35 160 -19 39 -36 75 -39 80 -2 6
4 3 15 -5 10 -8 1 7 -20 33 -36 43 -64 67 -81 67 -3 0 -3 -6 0 -12 4 -7 1 -6
-7 3 -20 24 -55 40 -72 33 -9 -3 -16 -2 -16 3 0 9 -189 13 -239 5z m407 -102
c7 -11 11 -20 9 -20 -2 0 -12 9 -22 20 -10 11 -14 20 -9 20 5 0 15 -9 22 -20z"/>
<path d="M3547 3299 c4 -13 8 -18 11 -10 2 7 -1 18 -6 23 -8 8 -9 4 -5 -13z"/>
<path d="M3476 3255 c-3 -8 -2 -15 2 -15 6 0 17 -21 41 -84 7 -18 8 -18 14 -3
3 9 2 17 -3 17 -6 0 -10 8 -10 19 0 26 -20 81 -30 81 -4 0 -10 -7 -14 -15z"/>
<path d="M860 3066 c0 -8 5 -18 10 -21 6 -3 10 3 10 14 0 12 -4 21 -10 21 -5
0 -10 -6 -10 -14z"/>
<path d="M3561 3014 c0 -11 3 -14 6 -6 3 7 2 16 -1 19 -3 4 -6 -2 -5 -13z"/>
<path d="M3551 2939 c-7 -23 -15 -48 -18 -58 -4 -10 -3 -13 4 -6 12 13 38 94
31 100 -3 3 -10 -13 -17 -36z"/>
<path d="M466 2802 c-7 -12 -1 -140 7 -149 4 -3 2 -14 -4 -25 -5 -10 -7 -24
-3 -30 9 -15 25 -297 18 -320 -4 -15 -18 -18 -79 -18 -41 0 -76 -3 -78 -7 -3
-5 1 -69 9 -143 13 -124 13 -136 -2 -147 -15 -11 -15 -13 7 -22 14 -5 83 -10
154 -10 109 -2 133 -5 146 -19 17 -17 41 -105 62 -219 11 -60 13 -63 39 -63
33 0 33 -4 8 85 -27 98 -26 133 4 145 24 9 24 9 11 67 -8 32 -14 90 -15 129
l0 71 -39 7 c-21 3 -43 12 -49 19 -6 6 -12 58 -14 114 -3 102 -3 102 22 109
14 4 30 8 35 8 6 1 10 8 10 16 0 8 7 20 15 27 11 9 12 12 2 13 -9 0 -11 7 -6
22 3 12 6 52 5 89 -1 37 3 70 9 74 5 3 10 1 10 -4 0 -6 5 -11 11 -11 16 0 4
121 -14 131 -8 5 -59 14 -113 20 -65 7 -110 17 -131 30 -17 11 -34 16 -37 11z
m261 -704 c-3 -8 -6 -5 -6 6 -1 11 2 17 5 13 3 -3 4 -12 1 -19z"/>
<path d="M3718 2729 c42 -40 41 -54 -3 -27 -35 20 -36 20 -50 2 -12 -17 -12
-21 2 -31 8 -7 28 -10 42 -7 22 5 35 -2 70 -37 37 -37 80 -103 87 -134 28
-120 31 -214 9 -300 -43 -167 -174 -362 -317 -471 -79 -62 -168 -106 -184 -93
-9 7 -19 7 -33 -1 -33 -17 -25 2 18 44 39 38 39 40 25 67 -20 39 -19 43 28
105 l42 56 57 -6 c38 -5 60 -3 64 4 4 7 18 9 30 6 39 -10 77 64 40 78 -8 3
-15 18 -15 34 0 23 -7 32 -46 50 -39 19 -45 26 -40 45 15 53 15 69 0 30 -14
-38 -18 -42 -35 -32 -25 13 -28 11 -74 -58 -21 -32 -44 -62 -50 -68 -22 -21
-77 -115 -86 -150 -6 -20 -15 -33 -20 -29 -6 3 -13 -3 -15 -13 -11 -42 -120
-73 -148 -42 -21 23 -153 221 -166 251 -12 26 -10 30 47 85 78 76 151 200 118
200 -8 0 -12 -3 -10 -7 2 -3 -23 -6 -57 -6 -60 0 -61 -1 -104 -50 -24 -27 -41
-55 -39 -61 4 -12 -8 -17 -28 -14 -4 1 -23 -11 -42 -25 -19 -15 -35 -22 -35
-18 0 5 -7 1 -15 -10 -8 -11 -19 -15 -27 -10 -9 5 -8 2 2 -11 14 -17 13 -17
-10 -10 -23 7 -24 7 -10 -10 14 -17 13 -18 -2 -12 -9 3 -22 0 -28 -8 -17 -21
-87 -27 -160 -15 -117 19 -152 29 -144 42 4 6 -4 5 -16 -2 -12 -6 -24 -9 -28
-6 -3 3 0 6 6 6 7 0 12 5 12 11 0 7 -10 9 -27 5 -21 -5 -24 -4 -13 4 9 6 10
10 3 10 -6 0 -14 -4 -18 -9 -6 -11 -78 -2 -83 11 -2 4 -12 8 -22 8 -10 0 -21
4 -25 10 -3 5 -13 6 -22 3 -12 -5 -14 -3 -8 7 5 9 4 11 -3 6 -22 -14 -12 -46
25 -78 20 -18 44 -40 53 -49 26 -24 48 -238 51 -494 1 -77 6 -145 11 -152 5
-7 25 -40 44 -75 18 -35 34 -58 34 -53 0 13 20 -17 20 -30 0 -5 -4 -4 -9 3 -7
11 -13 9 -31 -10 -43 -45 -10 -168 45 -168 14 0 23 -74 31 -245 5 -119 11
-172 23 -220 14 -53 14 -158 1 -150 -8 5 -16 -38 -11 -67 0 -4 -13 -20 -29
-37 l-30 -29 0 28 0 29 -33 -19 c-40 -24 -111 -115 -104 -134 8 -21 50 -24
139 -10 45 7 85 11 90 8 17 -11 108 29 189 82 97 65 179 108 187 100 3 -3 -1
-6 -9 -6 -10 -1 -9 -4 4 -11 17 -10 16 -12 -7 -34 -17 -16 -26 -35 -26 -54 0
-16 -7 -36 -15 -44 -19 -20 -13 -88 11 -133 17 -32 17 -34 -1 -53 l-18 -21
506 0 c327 0 507 4 507 10 0 15 -94 248 -129 320 -21 42 -44 74 -67 89 -20 14
-44 41 -54 61 -44 86 -129 152 -169 130 -22 -11 -31 3 -31 50 0 16 -7 30 -15
34 -8 3 -15 1 -15 -4 0 -6 5 -10 11 -10 6 0 9 -6 6 -14 -3 -8 3 -52 14 -97 38
-158 2 -82 -51 111 -10 36 -34 122 -54 192 -19 70 -38 139 -41 155 -3 15 -22
94 -44 175 -30 113 -36 148 -26 152 9 3 19 -16 31 -62 9 -37 21 -71 25 -76 5
-5 4 6 -1 25 -7 23 -7 35 1 38 6 2 22 14 37 26 25 22 27 28 25 99 l-2 76 73
37 c44 22 72 41 69 48 -2 7 27 30 71 54 82 45 173 114 221 167 28 32 90 118
138 194 83 130 134 350 90 387 -15 12 -15 14 -1 10 20 -7 18 20 -3 34 -12 7
-12 9 0 9 11 0 9 4 -5 15 -14 11 -15 14 -4 15 13 0 13 1 0 10 -16 10 -20 29
-9 45 9 12 -29 95 -43 95 -6 0 -5 -6 2 -15 7 -8 9 -15 5 -15 -4 0 -1 -8 6 -17
13 -16 12 -17 -3 -4 -10 7 -16 17 -13 21 3 5 1 11 -4 15 -6 3 -8 12 -5 19 6
15 -51 86 -69 86 -7 0 -7 -4 1 -12 7 -7 12 -17 12 -22 0 -6 -7 -2 -15 8 -8 10
-12 22 -10 26 3 4 -2 13 -10 20 -8 7 -15 18 -15 25 0 7 -7 16 -16 19 -35 13
-37 4 -6 -25z m107 -99 c10 -11 16 -20 13 -20 -3 0 -13 9 -23 20 -10 11 -16
20 -13 20 3 0 13 -9 23 -20z m92 -412 c-3 -7 -5 -2 -5 12 0 14 2 19 5 13 2 -7
2 -19 0 -25z m-14 -58 c-3 -11 -7 -20 -9 -20 -2 0 -4 9 -4 20 0 11 4 20 9 20
5 0 7 -9 4 -20z m-29 -74 c-3 -9 -10 -16 -15 -16 -5 0 -4 9 3 20 14 22 21 20
12 -4z m-36 -66 c-7 -10 -14 -18 -15 -16 -6 6 9 36 18 36 5 0 4 -9 -3 -20z
m-252 -37 c-8 -8 -36 5 -36 17 0 7 6 7 21 0 11 -7 18 -14 15 -17z m-672 -55
c15 -35 31 -71 37 -80 5 -10 9 -35 9 -55 0 -32 -6 -42 -35 -61 -18 -13 -39
-21 -44 -17 -6 3 -17 3 -23 -2 -28 -17 -103 -31 -125 -22 -13 5 -30 6 -38 2
-9 -3 -26 4 -38 15 -15 14 -42 24 -79 28 -52 6 -58 10 -72 39 -9 18 -16 42
-16 53 0 27 50 62 88 62 17 0 34 5 37 10 3 6 17 10 31 10 27 0 145 39 190 63
16 9 34 16 40 17 6 0 23 -28 38 -62z m878 12 c-9 -16 -20 -30 -24 -30 -4 0 1
13 10 30 9 16 20 30 24 30 4 0 -1 -13 -10 -30z m-1169 -17 c-13 -2 -33 -2 -45
0 -13 2 -3 4 22 4 25 0 35 -2 23 -4z m1131 -35 c-18 -30 -78 -98 -68 -78 10
21 65 90 70 90 3 0 2 -6 -2 -12z m-114 -132 c0 -2 -8 -10 -17 -17 -16 -13 -17
-12 -4 4 13 16 21 21 21 13z m-193 -132 c-13 -13 -151 -84 -163 -84 -28 0 71
59 101 61 2 0 17 6 32 14 30 16 40 19 30 9z m-308 -80 c25 -4 61 -47 61 -74 0
-41 -64 -110 -102 -110 -40 0 -88 48 -88 88 0 36 31 78 65 86 14 4 25 11 25
17 0 6 6 7 13 2 6 -4 18 -8 26 -9z m-745 -35 c12 -11 99 -328 94 -346 -1 -4 5
-20 12 -35 11 -23 20 -28 49 -29 40 0 91 -17 58 -18 -10 -1 -20 -8 -23 -16 -4
-8 -17 -15 -30 -15 -25 0 -28 -7 -18 -34 5 -12 20 -16 60 -16 48 0 54 -2 54
-21 0 -16 -5 -20 -27 -18 -40 4 -72 -16 -66 -41 4 -16 14 -20 47 -21 67 -2 71
-3 74 -21 3 -15 -3 -18 -38 -16 -48 2 -62 -9 -53 -41 5 -21 10 -22 59 -19 38
2 55 -1 59 -10 11 -28 5 -35 -28 -29 -36 6 -67 -11 -67 -36 0 -18 21 -25 85
-29 30 -2 41 -8 43 -22 4 -17 0 -18 -33 -13 -46 8 -77 -6 -68 -31 10 -25 23
-32 71 -32 35 0 42 -3 42 -20 0 -10 8 -23 18 -29 15 -9 14 -11 -8 -19 -14 -5
-29 -7 -35 -4 -5 4 -16 7 -23 8 -23 4 -24 12 -3 19 12 3 21 11 21 16 0 19 -18
7 -80 -56 -52 -53 -70 -65 -96 -65 -29 0 -32 4 -39 38 -4 20 -9 84 -10 142 -5
145 -15 249 -26 255 -8 6 -3 -163 7 -192 2 -7 0 -13 -5 -13 -25 0 -21 337 5
375 22 31 17 70 -12 99 -15 14 -23 26 -17 26 5 0 14 -5 21 -12 18 -18 14 3 -5
24 -9 10 -24 18 -34 18 -10 0 -24 9 -32 20 -8 11 -17 17 -21 13 -4 -4 -4 1 0
11 5 13 4 17 -4 12 -8 -5 -10 -1 -5 10 4 12 3 15 -5 10 -8 -5 -10 -1 -5 10 4
11 3 15 -4 11 -7 -5 -9 0 -6 12 2 10 -5 37 -16 59 -14 27 -21 60 -21 97 l0 56
38 -7 c20 -3 41 -10 46 -15z m-55 -184 c0 -5 -8 6 -19 25 -11 19 -19 40 -19
45 0 6 8 -6 19 -25 11 -19 19 -39 19 -45z m769 -92 c26 -69 43 -146 33 -152
-11 -7 23 -145 42 -169 5 -7 7 -15 4 -19 -4 -3 -2 -12 3 -19 6 -6 10 -16 9
-20 -1 -5 3 -22 10 -39 14 -33 25 -148 12 -127 -9 15 -65 32 -109 32 -28 0
-33 4 -38 30 -7 30 -18 35 -69 31 -15 -2 -12 3 13 18 34 22 35 24 26 58 -5 17
-15 23 -43 25 l-36 3 28 15 c23 11 27 19 25 44 -3 29 -6 31 -40 30 -46 -2 -49
9 -7 26 26 11 29 17 24 39 -9 34 -10 35 -50 33 -43 -3 -46 12 -5 27 51 17 35
77 -19 69 -40 -6 -41 13 -1 30 17 8 30 20 30 27 0 8 22 16 58 23 87 15 89 14
100 -15z m-250 -86 c2 -9 -2 -17 -9 -17 -6 0 -17 -7 -24 -16 -7 -10 -27 -17
-51 -18 -32 -1 -39 2 -39 18 0 14 14 24 50 37 57 20 69 19 73 -4z m310 -32 c0
-16 -2 -15 -8 5 -11 34 -11 60 0 35 5 -11 8 -29 8 -40z m-714 -1 c20 -8 21
-24 2 -24 -8 0 -16 7 -20 15 -6 17 -4 18 18 9z m-24 -24 c0 -5 -2 -10 -4 -10
-3 0 -8 5 -11 10 -3 6 -1 10 4 10 6 0 11 -4 11 -10z m759 -50 c0 -9 -4 -8 -9
5 -5 11 -9 27 -9 35 0 9 4 8 9 -5 5 -11 9 -27 9 -35z m-309 10 c0 -11 -5 -20
-11 -20 -7 0 -17 -7 -23 -16 -7 -8 -27 -16 -46 -17 -29 -2 -36 2 -38 19 -3 18
6 24 50 37 69 20 68 20 68 -3z m-433 -117 c-2 -21 -4 -6 -4 32 0 39 2 55 4 38
2 -18 2 -50 0 -70z m459 26 c3 -6 1 -16 -5 -22 -8 -8 -11 -7 -12 4 -1 7 -4 3
-8 -10 -9 -34 -69 -51 -88 -25 -16 22 -8 31 48 48 57 18 57 18 65 5z m24 -99
c0 -5 0 -12 0 -15 0 -3 -3 -5 -7 -4 -3 0 -10 -7 -15 -16 -22 -37 -98 -42 -98
-6 0 14 14 23 53 34 64 19 67 19 67 7z m30 -105 c0 -8 -6 -15 -14 -15 -7 0
-16 -8 -19 -19 -4 -19 -50 -33 -74 -24 -7 3 -13 13 -13 23 0 12 15 22 53 33
67 20 67 20 67 2z m-483 -162 c-2 -16 -4 -3 -4 27 0 30 2 43 4 28 2 -16 2 -40
0 -55z m511 47 c2 -14 -3 -27 -12 -32 -9 -5 -16 -15 -16 -22 0 -14 -21 -26
-46 -26 -8 0 -14 6 -14 14 0 7 -7 19 -15 26 -26 22 -16 39 33 54 57 18 66 16
70 -14z m458 -97 c-7 -7 -26 7 -26 19 0 6 6 6 15 -2 9 -7 13 -15 11 -17z
m-762 -111 c-16 -15 -34 -36 -41 -47 -11 -19 -12 -19 -12 -1 -1 19 67 91 77
82 2 -3 -8 -18 -24 -34z m-207 -84 c-3 -8 -6 -5 -6 6 -1 11 2 17 5 13 3 -3 4
-12 1 -19z m-16 -110 c-4 -18 -11 -32 -16 -30 -12 4 -7 32 7 50 15 18 16 15 9
-20z"/>
<path d="M3052 1505 c-19 -16 -32 -36 -32 -49 0 -26 37 -71 66 -80 28 -9 84
29 84 56 -1 20 -2 21 -10 6 -6 -9 -23 -26 -38 -37 l-28 -20 -28 26 c-22 20
-26 31 -21 52 13 56 79 72 110 28 8 -12 15 -17 15 -11 0 16 -32 42 -61 49 -19
5 -34 0 -57 -20z"/>
<path d="M2961 634 c0 -11 3 -14 6 -6 3 7 2 16 -1 19 -3 4 -6 -2 -5 -13z"/>
<path d="M3319 2723 c-13 -16 -12 -17 4 -4 9 7 17 15 17 17 0 8 -8 3 -21 -13z"/>
<path d="M3350 2570 c-100 -7 -78 -18 43 -21 54 -2 100 -6 103 -11 12 -20 114
3 114 26 0 13 -119 16 -260 6z m227 -16 c-3 -3 -12 -4 -19 -1 -8 3 -5 6 6 6
11 1 17 -2 13 -5z"/>
<path d="M765 2510 c3 -5 8 -10 11 -10 2 0 4 5 4 10 0 6 -5 10 -11 10 -5 0 -7
-4 -4 -10z"/>
<path d="M1376 2315 c2 -66 4 -125 4 -131 0 -15 38 -25 46 -12 3 5 12 7 20 4
8 -3 14 1 14 10 0 9 5 12 11 8 6 -3 14 -1 18 5 9 15 -11 97 -27 113 -7 7 -12
18 -12 25 0 6 -18 31 -39 55 l-39 42 4 -119z"/>
<path d="M1533 2280 c-1 -13 2 -18 10 -13 7 3 3 -3 -7 -15 -11 -12 -15 -22 -9
-22 5 0 18 9 28 20 15 16 15 22 5 35 -17 20 -25 19 -27 -5z"/>
<path d="M2911 2257 c-13 -21 -12 -21 5 -5 10 10 16 20 13 22 -3 3 -11 -5 -18
-17z"/>
<path d="M2875 2260 c-3 -6 1 -7 9 -4 18 7 21 14 7 14 -6 0 -13 -4 -16 -10z"/>
<path d="M1605 1900 c-3 -5 -4 -14 -1 -19 8 -13 -4 -42 -14 -36 -11 7 -23 -32
-15 -45 3 -5 2 -10 -2 -10 -5 0 -15 -21 -22 -47 -8 -27 -31 -91 -52 -143 -42
-101 -48 -144 -24 -154 10 -3 15 -19 15 -45 0 -32 -5 -43 -29 -60 -16 -12 -33
-21 -39 -21 -5 0 -12 -19 -16 -42 -4 -23 -23 -72 -44 -109 -34 -63 -36 -69
-22 -94 8 -16 33 -39 55 -53 35 -23 54 -27 142 -30 115 -5 210 16 481 103 115
37 151 53 183 82 64 58 94 136 65 166 -9 9 -16 20 -16 26 0 6 -3 10 -7 9 -11
-4 -93 54 -119 83 -12 13 -25 34 -29 47 -3 12 -11 22 -16 22 -6 0 -21 11 -34
24 -13 13 -46 34 -74 47 -28 12 -51 28 -51 35 0 11 -66 84 -77 84 -3 0 -14 11
-25 25 -14 18 -26 24 -39 20 -15 -5 -19 -1 -19 20 0 15 -7 28 -17 32 -15 6
-14 7 3 14 15 5 9 9 -24 14 -33 6 -46 14 -58 36 -14 29 -47 39 -59 19z"/>
<path d="M81 1864 c0 -11 3 -14 6 -6 3 7 2 16 -1 19 -3 4 -6 -2 -5 -13z"/>
<path d="M1103 1851 c-17 -28 3 -59 77 -115 l64 -48 8 31 c6 21 15 31 28 31
33 0 25 45 -14 85 -32 32 -39 35 -93 35 -46 0 -61 -4 -70 -19z"/>
<path d="M1256 1532 c-4 -6 27 -17 76 -28 45 -10 76 -20 70 -22 -20 -6 -14
-22 9 -22 13 0 18 4 13 12 -5 8 -2 9 9 5 28 -11 19 1 -20 27 -41 27 -146 45
-157 28z"/>
<path d="M4971 1353 c-7 -27 -20 -58 -28 -71 -18 -29 -3 -52 33 -52 23 0 24 2
24 85 0 47 -4 85 -8 85 -4 0 -14 -21 -21 -47z"/>
<path d="M828 1023 c7 -3 16 -2 19 1 4 3 -2 6 -13 5 -11 0 -14 -3 -6 -6z"/>
<path d="M3265 1005 c9 -47 36 -138 40 -133 4 3 -30 134 -40 153 -3 6 -3 -3 0
-20z"/>
<path d="M4618 953 c7 -3 16 -2 19 1 4 3 -2 6 -13 5 -11 0 -14 -3 -6 -6z"/>
<path d="M4690 920 c8 -5 22 -10 30 -10 8 0 42 -13 75 -29 79 -38 182 -81 195
-81 20 0 10 39 -12 45 -13 4 -78 24 -146 46 -122 39 -173 49 -142 29z"/>
<path d="M3290 851 c0 -5 7 -11 15 -15 8 -3 15 -1 15 3 0 5 -7 11 -15 15 -8 3
-15 1 -15 -3z"/>
<path d="M3300 811 c0 -5 7 -11 15 -15 8 -3 15 -1 15 3 0 5 -7 11 -15 15 -8 3
-15 1 -15 -3z"/>
<path d="M3310 776 c0 -2 7 -9 15 -16 9 -7 15 -8 15 -2 0 5 -7 12 -15 16 -8 3
-15 4 -15 2z"/>
<path d="M3320 731 c0 -5 7 -11 15 -15 8 -3 15 -1 15 3 0 5 -7 11 -15 15 -8 3
-15 1 -15 -3z"/>
<path d="M4395 670 c3 -5 8 -10 11 -10 2 0 4 5 4 10 0 6 -5 10 -11 10 -5 0 -7
-4 -4 -10z"/>
<path d="M4420 655 c0 -3 24 -19 53 -36 86 -51 118 -70 204 -126 46 -29 87
-53 92 -53 5 0 11 -6 14 -14 3 -7 26 -23 51 -35 25 -12 56 -31 70 -42 22 -17
24 -23 13 -40 -6 -10 -15 -19 -18 -19 -4 0 -24 -16 -45 -35 -25 -23 -32 -35
-22 -35 9 0 25 10 35 23 10 12 33 33 51 46 28 20 38 22 58 12 23 -10 24 -10
24 34 0 42 -2 45 -28 45 -15 0 -50 15 -78 33 -27 18 -70 41 -94 51 -24 9 -56
26 -71 37 -15 10 -31 19 -36 19 -5 0 -30 14 -56 30 -26 17 -52 30 -57 30 -5 0
-39 18 -75 40 -61 37 -85 47 -85 35z"/>
<path d="M1637 493 c-4 -3 -7 -11 -7 -17 0 -6 5 -5 12 2 6 6 9 14 7 17 -3 3
-9 2 -12 -2z"/>
<path d="M1595 440 c-3 -6 1 -7 9 -4 18 7 21 14 7 14 -6 0 -13 -4 -16 -10z"/>
<path d="M4110 440 c8 -5 20 -10 25 -10 6 0 3 5 -5 10 -8 5 -19 10 -25 10 -5
0 -3 -5 5 -10z"/>
<path d="M4150 410 c0 -5 5 -10 11 -10 5 0 7 5 4 10 -3 6 -8 10 -11 10 -2 0
-4 -4 -4 -10z"/>
<path d="M4186 376 c3 -9 10 -16 16 -16 5 0 44 -33 86 -73 150 -143 180 -168
199 -165 10 2 17 -2 15 -10 -1 -7 16 -31 38 -53 22 -22 40 -45 40 -50 0 -5 20
-9 45 -9 43 0 45 1 35 21 -9 15 -8 24 1 35 8 10 8 14 0 14 -6 0 -11 -4 -11 -9
0 -12 -30 -7 -60 9 -11 6 -30 8 -42 4 -17 -5 -20 -3 -15 11 9 23 -7 49 -45 73
-33 21 -124 90 -188 142 -73 61 -120 92 -114 76z"/>
<path d="M3756 320 c4 -8 13 -21 20 -30 7 -8 45 -55 83 -105 132 -168 146
-184 165 -185 17 0 -15 45 -94 131 -8 9 -31 35 -50 58 -51 61 -133 148 -124
131z"/>
<path d="M4797 203 c-12 -12 -7 -22 8 -17 8 4 15 10 15 15 0 11 -14 12 -23 2z"/>
<path d="M1802 178 c-7 -7 -12 -16 -12 -21 0 -14 -72 -130 -90 -145 -13 -11
-11 -12 13 -10 24 3 33 14 68 91 40 85 46 110 21 85z"/>
<path d="M4758 173 c7 -3 16 -2 19 1 4 3 -2 6 -13 5 -11 0 -14 -3 -6 -6z"/>
<path d="M4721 137 c-8 -10 -7 -14 4 -14 8 0 15 6 15 14 0 7 -2 13 -4 13 -2 0
-9 -6 -15 -13z"/>
<path d="M4974 131 c-12 -11 -25 -17 -28 -14 -3 4 -6 -1 -6 -10 0 -9 -14 -24
-30 -32 -18 -9 -28 -21 -24 -27 4 -6 3 -8 -3 -5 -6 4 -21 -5 -33 -18 l-23 -25
22 0 c29 0 71 28 72 49 0 9 3 11 5 4 8 -19 76 53 72 78 l-3 20 -21 -20z"/>
<path d="M1628 43 c7 -3 16 -2 19 1 4 3 -2 6 -13 5 -11 0 -14 -3 -6 -6z"/>
</g>
</svg>
